<?xml version="1.0" standalone="no"?>
<!DOCTYPE svg PUBLIC "-//W3C//DTD SVG 20010904//EN"
 "http://www.w3.org/TR/2001/REC-SVG-20010904/DTD/svg10.dtd">
<svg version="1.0" xmlns="http://www.w3.org/2000/svg"
 width="600.000000pt" height="600.000000pt" viewBox="0 0 600.000000 600.000000"
 preserveAspectRatio="xMidYMid meet">
<metadata>
Created by potrace 1.16, written by Peter Selinger 2001-2019
</metadata>
<g transform="translate(0.000000,600.000000) scale(0.100000,-0.100000)"
fill="#000000" stroke="none">
<path d="M0 3000 l0 -3000 3000 0 3000 0 0 3000 0 3000 -3000 0 -3000 0 0
-3000z m3091 2224 c60 -18 149 -65 170 -91 14 -16 232 -208 579 -508 546 -472
548 -473 595 -621 l26 -82 -3 -818 -4 -819 -23 -65 c-64 -183 -195 -288 -386
-310 -100 -11 -1014 -12 -1755 -1 -519 8 -510 6 -621 82 -107 73 -169 167
-189 291 -6 39 -10 365 -10 838 -1 858 0 866 62 982 36 68 66 96 448 428 140
122 316 275 390 339 74 65 180 157 235 205 100 87 163 127 240 151 57 18 182
18 246 -1z m-2002 -3726 c5 -13 43 -85 84 -161 l75 -139 40 74 c21 40 61 112
87 161 l47 87 79 0 79 0 0 -300 0 -300 -27 -1 c-16 0 -48 -1 -73 -2 l-45 -2
-5 164 -5 164 -55 -99 -56 -99 -64 -3 -65 -2 -42 77 c-74 139 -72 140 -73 -39
0 -98 -4 -158 -10 -159 -5 0 -38 0 -72 -1 -60 0 -63 1 -70 28 -11 41 -7 558 4
565 5 3 43 7 84 8 69 2 75 0 83 -21z m1701 -278 c0 -165 -3 -300 -7 -301 -63
-9 -110 -3 -124 15 -16 18 -18 19 -51 3 -81 -38 -174 -43 -225 -11 -47 29 -55
64 -51 225 l3 149 33 32 32 33 120 4 120 3 0 67 c0 37 3 71 7 74 3 4 37 7 75
7 l68 0 0 -300z m348 243 l-3 -58 -70 0 -70 0 -3 58 -3 57 76 0 76 0 -3 -57z
m890 0 l-3 -58 -72 -3 -73 -3 0 61 0 60 75 0 76 0 -3 -57z m334 -40 l3 -48 53
-3 52 -3 0 -59 0 -59 -52 -3 -53 -3 0 -105 0 -105 68 -3 c37 -2 67 -6 68 -10
6 -39 6 -71 2 -89 -5 -22 -10 -23 -109 -23 l-104 0 -38 34 -37 34 -3 136 c-4
129 -5 135 -25 138 -20 3 -22 9 -22 58 0 53 1 55 28 58 25 3 27 7 27 46 0 23
3 46 7 49 3 4 35 7 69 7 l63 0 3 -47z m-2247 -57 c57 -24 69 -54 70 -175 l0
-106 -148 -3 -148 -3 3 -27 3 -27 138 2 138 2 -3 -52 -3 -52 -50 -7 c-27 -3
-103 -7 -168 -7 -194 -2 -210 18 -205 246 3 160 14 187 79 210 49 17 251 16
294 -1z m1583 -58 l3 -58 -131 0 -130 0 0 -109 c0 -129 -10 -122 151 -114
l110 6 -3 -54 -3 -54 -50 -7 c-27 -3 -102 -7 -165 -7 -176 -1 -190 15 -190
223 0 143 8 180 43 205 37 27 57 29 212 28 l150 -2 3 -57z m1045 20 c8 -24 30
-83 48 -133 18 -49 35 -94 39 -98 4 -4 19 32 34 80 15 48 35 111 45 138 l17
50 63 3 c35 2 70 1 77 -2 13 -5 12 -10 -115 -359 -66 -184 -104 -233 -190
-244 -22 -3 -60 -2 -85 1 l-46 7 0 55 0 54 49 0 c94 0 93 8 -28 294 -43 102
-76 188 -73 191 3 3 38 5 77 5 l72 0 16 -42z m-1603 -194 l0 -214 -75 0 -74 0
-3 157 -3 158 -30 5 c-33 6 -41 28 -31 84 l6 31 105 -3 105 -3 0 -215z m890 2
c0 -244 6 -231 -92 -220 l-58 7 0 158 0 159 -30 0 c-30 0 -39 15 -39 65 1 44
4 45 114 45 l105 0 0 -214z"/>
<path d="M2857 4415 c-99 -28 -199 -121 -236 -219 -17 -45 -20 -81 -22 -250
-1 -128 -6 -199 -13 -204 -6 -4 -103 -9 -216 -12 -193 -5 -208 -7 -260 -31
-75 -35 -141 -102 -179 -181 -27 -57 -31 -77 -31 -145 0 -97 19 -164 64 -228
45 -63 104 -109 174 -136 49 -19 84 -23 252 -28 l195 -6 5 -205 5 -206 33 -66
c37 -75 101 -139 178 -178 63 -32 208 -41 279 -17 60 21 160 92 184 131 56 91
64 130 70 346 l6 205 210 5 c206 5 211 6 266 34 190 95 268 317 177 505 -28
58 -119 147 -178 175 -40 18 -67 21 -240 24 -107 1 -205 5 -217 7 -23 5 -23 7
-23 176 0 244 -24 325 -125 418 -95 88 -235 121 -358 86z"/>
<path d="M2480 1145 c0 -122 -1 -121 92 -108 l63 8 3 103 3 102 -81 0 -80 0 0
-105z"/>
</g>
</svg>
